<svg width="19" height="19" viewBox="0 0 19 19" fill="none" xmlns="http://www.w3.org/2000/svg">
<path fill-rule="evenodd" clip-rule="evenodd" d="M17 9.5C17 13.64 13.64 17 9.5 17C5.36 17 2 13.64 2 9.5C2 5.36 5.36 2 9.5 2C13.64 2 17 5.36 17 9.5ZM7.25 11.1875C7.7675 11.1875 8.1875 10.7675 8.1875 10.25C8.1875 9.7325 7.7675 9.3125 7.25 9.3125C6.7325 9.3125 6.3125 9.7325 6.3125 10.25C6.3125 10.7675 6.7325 11.1875 7.25 11.1875ZM10.8125 10.25C10.8125 9.7325 11.2325 9.3125 11.75 9.3125C12.2675 9.3125 12.6875 9.7325 12.6875 10.25C12.6875 10.7675 12.2675 11.1875 11.75 11.1875C11.2325 11.1875 10.8125 10.7675 10.8125 10.25ZM13.625 6.5C11.45 6.5 9.545 5.33 8.495 3.59C8.8175 3.5375 9.155 3.5 9.5 3.5C11.675 3.5 13.58 4.67 14.63 6.41C14.3075 6.4625 13.97 6.5 13.625 6.5ZM3.815 7.6025C5.0975 6.875 6.0875 5.69 6.56 4.2725C5.2775 5 4.2875 6.185 3.815 7.6025ZM15.2525 7.82C15.41 8.3525 15.5 8.915 15.5 9.5C15.5 12.8075 12.8075 15.5 9.5 15.5C6.1925 15.5 3.5 12.8075 3.5 9.5C3.5 9.48721 3.50087 9.47442 3.50172 9.46193C3.50337 9.43779 3.50494 9.41477 3.5 9.395C5.45 8.66 7.0175 7.1525 7.805 5.2325C9.185 6.92 11.2775 8 13.625 8C14.1875 8 14.7275 7.9325 15.2525 7.82Z" fill="#808080"/>
</svg>
