<svg width="19" height="19" viewBox="0 0 19 19" fill="none" xmlns="http://www.w3.org/2000/svg">
<path fill-rule="evenodd" clip-rule="evenodd" d="M9.5 1C4.808 1 1 4.808 1 9.5C1 14.192 4.808 18 9.5 18C14.192 18 18 14.192 18 9.5C18 4.808 14.192 1 9.5 1ZM9.9335 7.7915C9.9335 6.389 8.786 5.2415 7.3835 5.2415C5.981 5.2415 4.8335 6.389 4.8335 7.7915C4.8335 9.194 5.981 10.3415 7.3835 10.3415C8.786 10.3415 9.9335 9.194 9.9335 7.7915ZM7.38351 8.64149C6.91601 8.64149 6.53351 8.25899 6.53351 7.79149C6.53351 7.32399 6.91601 6.94149 7.38351 6.94149C7.85101 6.94149 8.23351 7.32399 8.23351 7.79149C8.23351 8.25899 7.85101 8.64149 7.38351 8.64149ZM14.6084 8.64149C14.6084 9.58499 13.8519 10.3415 12.9084 10.3415C11.9649 10.3415 11.2084 9.58499 11.2084 8.64149C11.1999 7.69799 11.9649 6.94149 12.9084 6.94149C13.8519 6.94149 14.6084 7.69799 14.6084 8.64149ZM7.38351 12.9C6.20201 12.9 4.85051 13.3845 4.27251 13.8435C5.43701 15.246 7.15401 16.164 9.08351 16.2745V13.9115C9.08351 12.305 11.6165 11.6165 12.9085 11.6165C13.6565 11.6165 14.8125 11.8545 15.6625 12.356C16.0705 11.4805 16.3 10.5115 16.3 9.49149C16.3 5.74299 13.2485 2.69149 9.50001 2.69149C5.75151 2.69149 2.70001 5.74299 2.70001 9.49149C2.70001 10.537 2.93801 11.523 3.36301 12.407C4.50201 11.574 6.27851 11.1915 7.38351 11.1915C7.75751 11.1915 8.20801 11.2425 8.68401 11.3275C8.14851 11.812 7.78301 12.3645 7.57901 12.9085C7.54388 12.9085 7.50874 12.9062 7.47478 12.904C7.44301 12.902 7.41227 12.9 7.38351 12.9Z" fill="#808080"/>
</svg>
