<svg width="19" height="19" viewBox="0 0 19 19" fill="none" xmlns="http://www.w3.org/2000/svg">
<path fill-rule="evenodd" clip-rule="evenodd" d="M5.39523 5.38151C5.39523 3.94094 6.56304 2.77313 8.00361 2.77313C9.44418 2.77313 10.612 3.94094 10.612 5.38151C10.612 6.82208 9.44418 7.98989 8.00361 7.98989C6.56304 7.98989 5.39523 6.82208 5.39523 5.38151ZM8.00361 1.58334C5.90594 1.58334 4.20544 3.28384 4.20544 5.38151C4.20544 7.47918 5.90594 9.17968 8.00361 9.17968C10.1013 9.17968 11.8018 7.47918 11.8018 5.38151C11.8018 3.28384 10.1013 1.58334 8.00361 1.58334ZM3.56479 13.6185C3.56479 13.0079 3.95483 12.37 4.76362 11.8553C5.56535 11.3451 6.70925 11.0101 8.00361 11.0101C9.29797 11.0101 10.4419 11.3451 11.2436 11.8553C12.0524 12.37 12.4424 13.0079 12.4424 13.6185C12.4424 14.2291 12.0524 14.867 11.2436 15.3817C10.4419 15.8918 9.29797 16.2269 8.00361 16.2269C6.70925 16.2269 5.56535 15.8918 4.76362 15.3817C3.95483 14.867 3.56479 14.2291 3.56479 13.6185ZM8.00361 9.82031C6.51792 9.82031 5.14497 10.2024 4.12485 10.8515C3.11179 11.4962 2.375 12.46 2.375 13.6185C2.375 14.777 3.11179 15.7408 4.12485 16.3854C5.14497 17.0346 6.51792 17.4167 8.00361 17.4167C9.4893 17.4167 10.8623 17.0346 11.8824 16.3854C12.8954 15.7408 13.6322 14.777 13.6322 13.6185C13.6322 12.46 12.8954 11.4962 11.8824 10.8515C10.8623 10.2024 9.4893 9.82031 8.00361 9.82031ZM13.9671 9.90408C14.0332 9.61877 14.3021 9.44497 14.5678 9.51587C15.1435 9.66949 15.6714 9.90333 16.1209 10.2043C16.9831 10.7817 17.6133 11.6528 17.6133 12.7033C17.6133 13.9274 16.7645 14.9017 15.6685 15.469C15.3307 15.6439 14.9607 15.7859 14.5678 15.8907C14.3021 15.9616 14.0332 15.7878 13.9671 15.5025C13.9011 15.2172 14.063 14.9285 14.3287 14.8576C14.6602 14.7691 14.9656 14.651 15.238 14.51C16.1642 14.0307 16.6218 13.3464 16.6218 12.7033C16.6218 12.1498 16.2879 11.5708 15.5962 11.1077C15.245 10.8725 14.8156 10.679 14.3287 10.549C14.063 10.4781 13.9011 10.1894 13.9671 9.90408ZM12.927 2.19999C12.5956 2.11809 12.2469 2.27478 12.1483 2.54995C12.0496 2.82513 12.2383 3.1146 12.5698 3.1965C13.7043 3.47682 14.5306 4.34974 14.5306 5.38153C14.5306 6.15566 14.0663 6.83985 13.3535 7.25262C13.1165 7.38989 12.8525 7.4967 12.5698 7.56656C12.2383 7.64846 12.0496 7.93792 12.1483 8.2131C12.2469 8.48828 12.5956 8.64497 12.927 8.56307C13.3402 8.46097 13.7252 8.30506 14.07 8.10538C15.1042 7.50649 15.783 6.50985 15.783 5.38153C15.783 3.87722 14.578 2.60791 12.927 2.19999Z" fill="#808080"/>
</svg>
