<svg width="19" height="19" viewBox="0 0 19 19" fill="none" xmlns="http://www.w3.org/2000/svg">
<path fill-rule="evenodd" clip-rule="evenodd" d="M9.49999 2.375C9.93721 2.375 10.2917 2.72944 10.2917 3.16667V3.96978C13.8238 4.17467 16.625 7.10396 16.625 10.6875V14.25C16.625 15.1245 15.9161 15.8333 15.0417 15.8333L11.4792 15.8333C11.4792 16.4892 11.0833 17.0208 9.50001 17.0208C7.91668 17.0208 7.52085 16.4892 7.52085 15.8333L3.95833 15.8333C3.08388 15.8333 2.375 15.1245 2.375 14.25V10.6875C2.375 7.10397 5.17616 4.17468 8.70832 3.96979V3.16667C8.70832 2.72944 9.06276 2.375 9.49999 2.375ZM9.10417 5.54167C6.2622 5.54167 3.95833 7.84554 3.95833 10.6875V14.25H15.0417V10.6875C15.0417 7.84554 12.7378 5.54167 9.89583 5.54167H9.10417Z" fill="#808080"/>
</svg>
