<svg width="19" height="19" viewBox="0 0 19 19" fill="none" xmlns="http://www.w3.org/2000/svg">
<path fill-rule="evenodd" clip-rule="evenodd" d="M8.13936 1.49576C7.98937 1.45613 7.82947 1.48836 7.70655 1.58302C7.58364 1.67767 7.51162 1.82403 7.51162 1.97917V7.88277L4.44803 7.06294L3.80489 5.45855C3.74636 5.31255 3.62255 5.2026 3.47066 5.16175L2.32274 4.853C2.17255 4.8126 2.01211 4.84439 1.88868 4.93901C1.76524 5.03364 1.69287 5.18031 1.69287 5.33584V9.42875C1.69287 9.65505 1.84487 9.85314 2.06346 9.91171L15.1814 13.4267L15.1838 13.4274C16.0813 13.6629 17.0026 13.1354 17.2496 12.2372L17.2496 12.2372L17.2511 12.2315C17.4866 11.3341 16.9591 10.4128 16.0609 10.1658L16.0575 10.1649L12.1215 9.11235L10.0177 2.23662C9.96704 2.07121 9.83452 1.94371 9.66728 1.89951L8.13936 1.49576ZM8.51162 8.53417V2.62846L9.14282 2.79525L11.2464 9.67005C11.2969 9.83496 11.4288 9.96223 11.5954 10.0068L15.7957 11.13L15.7972 11.1304C16.1638 11.2321 16.3795 11.607 16.2846 11.9748C16.1822 12.3412 15.8068 12.5564 15.4388 12.4604L15.4377 12.4601L2.69287 9.04509V5.98809L2.96965 6.06253L3.61294 7.66729C3.67155 7.8135 3.79562 7.92354 3.94778 7.96426L7.88237 9.01717C8.0325 9.05735 8.19278 9.02543 8.31606 8.9308C8.43935 8.83616 8.51162 8.68959 8.51162 8.53417ZM2.77079 15.4375C2.33356 15.4375 1.97912 15.7919 1.97912 16.2292C1.97912 16.6664 2.33356 17.0208 2.77079 17.0208H16.2291C16.6663 17.0208 17.0208 16.6664 17.0208 16.2292C17.0208 15.7919 16.6663 15.4375 16.2291 15.4375H2.77079Z" fill="#808080"/>
</svg>
