<svg width="19" height="19" viewBox="0 0 19 19" fill="none" xmlns="http://www.w3.org/2000/svg">
<path fill-rule="evenodd" clip-rule="evenodd" d="M12.6667 10.2917C12.6667 10.7289 13.0211 11.0833 13.4584 11.0833C13.8956 11.0833 14.25 10.7289 14.25 10.2917V7.91666H15.8334V12.6667C15.8334 14.4156 14.4156 15.8333 12.6667 15.8333H6.33337C4.58447 15.8333 3.16671 14.4156 3.16671 12.6667V7.91666H4.75004L4.75004 10.2917C4.75004 10.7289 5.10448 11.0833 5.54171 11.0833C5.97893 11.0833 6.33338 10.7289 6.33338 10.2917L6.33337 7.91666H12.6667L12.6667 10.2917ZM14.25 6.33333L16.625 6.33333C17.0623 6.33333 17.4167 6.68777 17.4167 7.12499V12.6667C17.4167 15.29 15.2901 17.4167 12.6667 17.4167H6.33337C3.71002 17.4167 1.58337 15.29 1.58337 12.6667V7.125C1.58337 6.68777 1.93782 6.33333 2.37504 6.33333L4.75004 6.33333C4.75004 3.70998 6.87669 1.58333 9.50004 1.58333C12.1234 1.58333 14.25 3.70997 14.25 6.33333ZM6.33337 6.33333C6.33337 4.58443 7.75114 3.16666 9.50004 3.16666C11.2489 3.16666 12.6667 4.58443 12.6667 6.33333H6.33337Z" fill="#808080"/>
</svg>
