<svg width="19" height="19" viewBox="0 0 19 19" fill="none" xmlns="http://www.w3.org/2000/svg">
<rect width="19" height="19" fill="white"/>
<path fill-rule="evenodd" clip-rule="evenodd" d="M9.3649 4.16668H17.4167C17.8539 4.16668 18.2084 4.52112 18.2084 4.95834C18.2084 5.39557 17.8539 5.75001 17.4167 5.75001H9.3649C9.03886 6.67245 8.15913 7.33334 7.12504 7.33334C6.09095 7.33334 5.21122 6.67245 4.88518 5.75001H2.37504C1.93782 5.75001 1.58337 5.39557 1.58337 4.95834C1.58337 4.52112 1.93782 4.16668 2.37504 4.16668H4.88518C5.21122 3.24423 6.09095 2.58334 7.12504 2.58334C8.15913 2.58334 9.03886 3.24423 9.3649 4.16668ZM2.37504 8.91668C1.93782 8.91668 1.58337 9.27112 1.58337 9.70834C1.58337 10.1456 1.93782 10.5 2.37504 10.5H11.2185C11.5446 11.4225 12.4243 12.0833 13.4584 12.0833C14.4925 12.0833 15.3722 11.4225 15.6982 10.5H17.4167C17.8539 10.5 18.2084 10.1456 18.2084 9.70834C18.2084 9.27112 17.8539 8.91668 17.4167 8.91668H15.6982C15.3722 7.99423 14.4925 7.33334 13.4584 7.33334C12.4243 7.33334 11.5446 7.99423 11.2185 8.91668H2.37504ZM1.58337 14.4583C1.58337 14.0211 1.93782 13.6667 2.37504 13.6667H4.88518C5.21122 12.7442 6.09095 12.0833 7.12504 12.0833C8.15913 12.0833 9.03886 12.7442 9.3649 13.6667H17.4167C17.8539 13.6667 18.2084 14.0211 18.2084 14.4583C18.2084 14.8956 17.8539 15.25 17.4167 15.25H9.3649C9.03886 16.1725 8.15913 16.8333 7.12504 16.8333C6.09095 16.8333 5.21122 16.1725 4.88518 15.25H2.37504C1.93782 15.25 1.58337 14.8956 1.58337 14.4583Z" fill="#808080"/>
</svg>
