<svg width="19" height="19" viewBox="0 0 19 19" fill="none" xmlns="http://www.w3.org/2000/svg">
<path fill-rule="evenodd" clip-rule="evenodd" d="M5.38959 4.92222L4.29137 4.76797L4.25142 4.76234L4.25141 4.76234C4.12981 4.74519 4.03325 4.73157 3.92743 4.72312C3.82854 4.71522 3.75123 4.71484 3.6926 4.71937L3.68515 4.73597C3.6503 4.81471 3.6085 4.92397 3.56292 5.06803C3.47133 5.35745 3.37633 5.74952 3.29101 6.24813C3.27927 6.31674 3.26777 6.38706 3.25652 6.45906C3.29767 6.99288 3.52839 7.24519 3.8037 7.36707C4.35308 7.61027 4.87355 7.55171 5.11882 7.40696C5.47555 7.19644 5.93539 7.31497 6.14591 7.6717C6.35643 8.02842 6.23791 8.48827 5.88118 8.69879C5.12651 9.14415 4.08023 9.12988 3.19652 8.73868C3.14284 8.71492 3.09065 8.68963 3.03994 8.66285C3.01427 9.16305 3 9.70334 3 10.2825C3 13.8723 5.91015 16.7825 9.5 16.7825C12.84 16.7825 15.5917 14.2633 15.9585 11.0213C15.7778 11.0116 15.5783 10.9935 15.3766 10.9599C14.9496 10.8887 14.3859 10.7292 13.9696 10.3129C13.4489 9.79222 13.2244 9.23769 13.0924 8.8142C13.067 8.73242 13.0446 8.65428 13.0252 8.58542C12.7652 8.61964 12.4245 8.66158 12.0364 8.6932C11.1409 8.76616 9.93615 8.7897 8.81802 8.51017C7.71474 8.23435 6.98635 7.81004 6.51978 7.42122C6.28786 7.22795 6.1249 7.047 6.01483 6.9039C5.95989 6.83248 5.91834 6.77078 5.88808 6.72203C5.87295 6.69766 5.86065 6.67653 5.85091 6.65906C5.84604 6.65032 5.84181 6.64249 5.83819 6.63563L5.8332 6.62606L5.83104 6.62183L5.83004 6.61985L5.82957 6.6189C5.82933 6.61843 5.8291 6.61797 6.49992 6.28256L5.8291 6.61797C5.64386 6.24749 5.79403 5.79698 6.16451 5.61174C6.52906 5.42947 6.97108 5.57194 7.16163 5.9295L7.16254 5.93098C7.16744 5.93887 7.18058 5.9592 7.20376 5.98934C7.24994 6.04937 7.33698 6.14966 7.48006 6.26889C7.76349 6.50508 8.2851 6.83077 9.18182 7.05495C10.0637 7.27542 11.0764 7.26645 11.9146 7.19815C12.3277 7.1645 12.6847 7.11778 12.951 7.08209L12.9945 7.07625L12.9945 7.07624C13.1061 7.06125 13.2107 7.0472 13.2897 7.0387C13.3322 7.03413 13.3894 7.02863 13.4454 7.02749C13.4711 7.02697 13.5227 7.0266 13.5835 7.03449C13.6138 7.03842 13.6673 7.04695 13.7305 7.06786C13.7838 7.08546 13.911 7.13301 14.0303 7.25223C14.2397 7.46166 14.332 7.72548 14.3803 7.87494C14.4074 7.95894 14.4323 8.04769 14.4539 8.12477L14.4539 8.12487L14.4553 8.12977C14.4785 8.21256 14.5 8.28918 14.5246 8.36806C14.6189 8.67081 14.7482 8.97013 15.0302 9.25223C15.114 9.33597 15.3002 9.42643 15.6232 9.48026C15.7483 9.5011 15.8751 9.51364 15.9988 9.52118C15.9945 8.5787 15.9749 7.78768 15.8867 7.08428C15.7783 6.22039 15.5774 5.60282 15.2519 5.1146C14.3644 3.78336 12.3449 1.89136 9.71213 2.26747C8.0476 2.50526 7.13465 2.82643 6.61941 3.12096C6.16733 3.37938 5.99287 3.63093 5.859 3.91746L5.38959 4.92222ZM2.5 3.78255C2.25159 4.14702 2.00318 4.88982 1.81609 5.97426C1.77363 6.0683 1.75 6.17266 1.75 6.28255C1.75 6.31548 1.75042 6.34824 1.75127 6.38082C1.59828 7.42152 1.5 8.73077 1.5 10.2825C1.5 14.7008 5.08172 18.2825 9.5 18.2825C13.9183 18.2825 17.5 14.7008 17.5 10.2825C17.5 7.7561 17.5 5.78255 16.5 4.28255C15.5 2.78255 13 0.282547 9.5 0.782546C6 1.28255 5 2.21232 4.5 3.28255L4.45948 3.27682H4.45948C3.94768 3.20434 2.98683 3.06825 2.5 3.78255Z" fill="#808080"/>
<path d="M8.375 11.22C8.375 11.7375 7.955 12.1575 7.4375 12.1575C6.92 12.1575 6.5 11.7375 6.5 11.22C6.5 10.7025 6.92 10.2825 7.4375 10.2825C7.955 10.2825 8.375 10.7025 8.375 11.22Z" fill="#808080"/>
<path d="M11.9375 10.2825C11.42 10.2825 11 10.7025 11 11.22C11 11.7375 11.42 12.1575 11.9375 12.1575C12.455 12.1575 12.875 11.7375 12.875 11.22C12.875 10.7025 12.455 10.2825 11.9375 10.2825Z" fill="#808080"/>
</svg>
