<svg width="19" height="19" viewBox="0 0 19 19" fill="none" xmlns="http://www.w3.org/2000/svg">
<path fill-rule="evenodd" clip-rule="evenodd" d="M6.33333 3.16667C6.33333 1.855 7.39666 0.791672 8.70833 0.791672H10.2917C11.6033 0.791672 12.6667 1.855 12.6667 3.16667V5.54167H14.25C15.5617 5.54167 16.625 6.605 16.625 7.91667V14.25C16.625 15.5617 15.5617 16.625 14.25 16.625H13.8542C13.8542 17.2808 13.3225 17.8125 12.6667 17.8125H11.875C11.2192 17.8125 10.6875 17.2808 10.6875 16.625H8.3125C8.3125 17.2808 7.78084 17.8125 7.125 17.8125H6.33333C5.6775 17.8125 5.14583 17.2808 5.14583 16.625H4.75C3.43832 16.625 2.375 15.5617 2.375 14.25V7.91667C2.375 6.605 3.43832 5.54167 4.75 5.54167H6.33333V3.16667ZM11.0833 3.16667V5.54167H7.91667V3.16667C7.91667 2.72945 8.27111 2.37501 8.70833 2.37501H10.2917C10.7289 2.37501 11.0833 2.72945 11.0833 3.16667ZM4.75 7.125C4.31277 7.125 3.95833 7.47945 3.95833 7.91667V14.25C3.95833 14.6872 4.31277 15.0417 4.75 15.0417H14.25C14.6872 15.0417 15.0417 14.6872 15.0417 14.25V7.91667C15.0417 7.47945 14.6872 7.125 14.25 7.125H4.75ZM7.125 9.50001C7.125 9.06278 6.77056 8.70834 6.33333 8.70834C5.89611 8.70834 5.54167 9.06278 5.54167 9.50001V12.6667C5.54167 13.1039 5.89611 13.4583 6.33333 13.4583C6.77056 13.4583 7.125 13.1039 7.125 12.6667V9.50001ZM9.5 8.70834C9.93722 8.70834 10.2917 9.06278 10.2917 9.50001V12.6667C10.2917 13.1039 9.93722 13.4583 9.5 13.4583C9.06277 13.4583 8.70833 13.1039 8.70833 12.6667V9.50001C8.70833 9.06278 9.06277 8.70834 9.5 8.70834ZM13.4583 9.50001C13.4583 9.06278 13.1039 8.70834 12.6667 8.70834C12.2294 8.70834 11.875 9.06278 11.875 9.50001V12.6667C11.875 13.1039 12.2294 13.4583 12.6667 13.4583C13.1039 13.4583 13.4583 13.1039 13.4583 12.6667V9.50001Z" fill="#808080"/>
</svg>
