<svg width="19" height="19" viewBox="0 0 19 19" fill="none" xmlns="http://www.w3.org/2000/svg">
<path fill-rule="evenodd" clip-rule="evenodd" d="M9.49995 2.71429C5.75423 2.71429 2.71423 5.75429 2.71423 9.5C2.71423 13.2457 5.75423 16.2857 9.49995 16.2857C13.2457 16.2857 16.2857 13.2457 16.2857 9.5C16.2857 5.75429 13.2457 2.71429 9.49995 2.71429ZM8.82138 6.10714V7.46429H10.1785V6.10714H8.82138ZM8.82138 8.82143V12.8929H10.1785V8.82143H8.82138ZM4.07146 9.5C4.07146 12.4925 6.50753 14.9286 9.50003 14.9286C12.4925 14.9286 14.9286 12.4925 14.9286 9.5C14.9286 6.5075 12.4925 4.07143 9.50003 4.07143C6.50753 4.07143 4.07146 6.5075 4.07146 9.5Z" fill="#808080"/>
</svg>
