<svg width="19" height="19" viewBox="0 0 19 19" fill="none" xmlns="http://www.w3.org/2000/svg">
<path fill-rule="evenodd" clip-rule="evenodd" d="M6.70591 2.23483C6.58027 2.11775 6.40333 2.07334 6.2373 2.11722L4.70938 2.52097C4.55879 2.56076 4.43535 2.66845 4.37551 2.81225C4.31566 2.95604 4.32623 3.11951 4.40412 3.25439L7.35566 8.36613L4.29158 9.1861L2.92839 8.12045C2.80455 8.02364 2.64238 7.99071 2.49058 8.03154L1.34267 8.34029C1.19267 8.38063 1.06994 8.48839 1.01054 8.63191C0.95114 8.77543 0.961814 8.93841 1.03943 9.07296L3.08984 12.6275C3.2029 12.8235 3.4335 12.9192 3.65209 12.8607L16.77 9.35366L16.77 9.35372L16.7774 9.35161C17.6766 9.0963 18.208 8.17978 17.9716 7.27909C17.7349 6.37736 16.8021 5.83744 15.9006 6.08427L15.8987 6.08477L11.9658 7.13648L6.70591 2.23483ZM8.54762 8.43061L5.59713 3.3207L6.22601 3.15452L11.4867 8.05683C11.6127 8.17427 11.7903 8.21857 11.9567 8.17407L16.1605 7.0499L16.1605 7.04991L16.1639 7.04898C16.5285 6.94871 16.9087 7.16867 17.0043 7.53299C17.1001 7.89794 16.8889 8.27862 16.5075 8.38871L3.76439 11.7956L2.23078 9.13695L2.50922 9.06206L3.8721 10.1275C3.99576 10.2241 4.15765 10.2571 4.30929 10.2165L8.24387 9.16363C8.39406 9.12344 8.51701 9.01566 8.57653 8.87203C8.63605 8.7284 8.62536 8.56525 8.54762 8.43061ZM2.7867 14.816C2.34948 14.816 1.99503 15.1705 1.99503 15.6077C1.99503 16.0449 2.34948 16.3994 2.7867 16.3994H16.245C16.6823 16.3994 17.0367 16.0449 17.0367 15.6077C17.0367 15.1705 16.6823 14.816 16.245 14.816H2.7867Z" fill="#808080"/>
</svg>
