<svg width="19" height="19" viewBox="0 0 19 19" fill="none" xmlns="http://www.w3.org/2000/svg">
<path fill-rule="evenodd" clip-rule="evenodd" d="M10.625 8V2C13.94 2 16.625 4.685 16.625 8H10.625ZM12.125 3.755V6.5H14.87C14.4125 5.2175 13.4 4.205 12.125 3.755ZM5.705 8.75L4.9925 7.25H2.375V8.75H4.04C4.04 8.75 5.4575 11.8025 5.63 12.065C4.805 12.5075 4.25 13.3775 4.25 14.375C4.25 15.8225 5.4275 17 6.875 17C8.195 17 9.29 16.025 9.47 14.75H11.03C11.21 16.025 12.305 17 13.625 17C15.0725 17 16.25 15.8225 16.25 14.375C16.25 13.595 15.905 12.8975 15.365 12.4175C16.1525 11.405 16.625 10.13 16.625 8.75H5.705ZM5.75 14.375C5.75 14.9975 6.2525 15.5 6.875 15.5C7.4975 15.5 8 14.9975 8 14.375C8 13.7525 7.4975 13.25 6.875 13.25C6.2525 13.25 5.75 13.7525 5.75 14.375ZM13.625 15.5C13.0025 15.5 12.5 14.9975 12.5 14.375C12.5 13.7525 13.0025 13.25 13.625 13.25C14.2475 13.25 14.75 13.7525 14.75 14.375C14.75 14.9975 14.2475 15.5 13.625 15.5ZM13.9625 11.7725L14.18 11.495C14.48 11.1125 14.7125 10.6925 14.87 10.25H6.4025C6.49621 10.4403 6.58024 10.6144 6.65257 10.7643C6.77125 11.0102 6.8584 11.1908 6.905 11.27L7.235 11.7725C8.12 11.9 8.87 12.47 9.245 13.25H11.255C11.675 12.365 12.5825 11.75 13.625 11.75C13.7375 11.75 13.8575 11.7575 13.9625 11.7725Z" fill="#808080"/>
</svg>
