<svg width="28" height="28" fill="none" xmlns="http://www.w3.org/2000/svg"><g clip-path="url(#clip0_9_10639)"><path d="M14 0C6.266 0 0 6.266 0 14c0 7.703 6.25 14 14 14 7.766 0 14-6.313 14-14 0-7.734-6.266-14-14-14zm9.672 21.11C23.109 18.312 21.75 16 18.89 16a6.977 6.977 0 01-9.782 0c-2.859 0-4.218 2.313-4.78 5.11A12.062 12.062 0 012 14C2 7.39 7.39 2 14 2s12 5.39 12 12c0 2.656-.875 5.11-2.328 7.11zM20 11c0 3.313-2.688 6-6 6-3.313 0-6-2.688-6-6 0-3.313 2.688-6 6-6 3.313 0 6 2.688 6 6z" fill="#fff"/></g><defs><clipPath id="clip0_9_10639"><path fill="#fff" d="M0 0h28v28H0z"/></clipPath></defs></svg>