<svg width="141" height="23" fill="none" xmlns="http://www.w3.org/2000/svg"><g clip-path="url(#clip0_5_2622)" fill="#fff"><path d="M121.858 16.355V4.522c0-.436.342-.789.763-.789h3.053c.421 0 .763.353.763.79V15.96c0 .218.171.394.381.394h12.591c.422 0 .763.354.763.79v.788c0 .872-.683 1.578-1.526 1.578h-13.735c-1.686 0-3.053-1.413-3.053-3.156zm-21.366 0V6.89c0-1.743 1.366-3.156 3.052-3.156h11.446c.422 0 .764.353.764.79v.788c0 .871-.684 1.578-1.527 1.578h-8.775a.388.388 0 00-.382.394V9.65c0 .218.171.394.382.394h6.486c.422 0 .763.354.763.79 0 .87-.763 2.366-3.052 2.366h-4.197a.388.388 0 00-.382.394v2.367c0 .218.171.394.382.394h12.591c.421 0 .763.354.763.79v.788c0 .872-.683 1.578-1.526 1.578h-13.736c-1.686 0-3.052-1.413-3.052-3.156zm-15.164 5.909a.724.724 0 00-.039-.065L73.031 4.354a.198.198 0 01-.018-.032c-.111-.259.072-.554.349-.554h3.781c.55 0 1.055.306 1.326.796.027.05.056.1.09.146l8.967 12.5a.36.36 0 01.022.037.376.376 0 00.673-.02L95.85 1.45a1.522 1.522 0 011.366-.872h2.255c.283 0 .468.308.341.57l-9.564 19.774c-.517 1.07-1.573 1.744-2.73 1.744h-1.526a.76.76 0 01-.665-.402zM44.024 4.522c0-.436.341-.789.763-.789h.763c1.686 0 3.052 1.413 3.052 3.156v11.833a.776.776 0 01-.763.789h-2.29c-.842 0-1.525-.706-1.525-1.578V4.523zm-32.155-.571L.04 22.096c-.127.262.057.57.341.57h2.212c.579 0 1.15-.337 1.408-.872.255-.527 8.18-12.303 8.39-12.616l.012-.022a.375.375 0 01.656-.018l4.218 5.64c1.526 2.366 3.052 2.366 4.616 0l4.237-7.184a.377.377 0 01.683 0l9.433 14.284c.259.534.787.788 1.365.788h4.122c.284 0 .468-.308.342-.57L28.839 2.27c-.051-.077-.096-.157-.143-.236-.215-.37-.956-1.457-2.223-1.457h-.528a.38.38 0 00-.34.218l-5.659 10.12a.376.376 0 01-.662.038L14.13 4.336c-.382-.433-1.075-.603-1.393-.603h-.527a.38.38 0 00-.341.218zm41.311-.218h1.527c1.303 0 2.209-.166 3.815 1.578l4.579 5.522 7.02 8.07c.02.025.038.051.049.081.088.252-.092.527-.36.527h-2.13c-1.157 0-2.21.166-3.816-1.578l-4.579-5.522-6.418-8.072a.267.267 0 01-.045-.076c-.09-.253.09-.53.359-.53z"/><path d="M55.693 19.28L70.08 4.407c.24-.249.07-.674-.27-.674h-1.63c-.809 0-1.585.333-2.158.924l-13.716 14.18c-.24.25-.07.674.27.674h2.578a.75.75 0 00.54-.231z"/></g><defs><clipPath id="clip0_5_2622"><path fill="#fff" d="M0 0h141v23H0z"/></clipPath></defs></svg>