<?xml version="1.0" encoding="utf-8"?><svg xmlns="http://www.w3.org/2000/svg" xmlns:xlink="http://www.w3.org/1999/xlink"><symbol viewBox="0 0 19 19" id="icon-mono_bag" xmlns="http://www.w3.org/2000/svg"><path fill-rule="evenodd" clip-rule="evenodd" d="M12.667 10.292a.792.792 0 0 0 1.583 0V7.917h1.583v4.75a3.167 3.167 0 0 1-3.166 3.166H6.333a3.167 3.167 0 0 1-3.166-3.166v-4.75H4.75v2.375a.792.792 0 0 0 1.583 0V7.917h6.334v2.375Zm1.583-3.959h2.375c.437 0 .792.355.792.792v5.542a4.75 4.75 0 0 1-4.75 4.75H6.333a4.75 4.75 0 0 1-4.75-4.75V7.125c0-.437.355-.792.792-.792H4.75a4.75 4.75 0 0 1 9.5 0Zm-7.917 0a3.167 3.167 0 0 1 6.334 0H6.333Z"/></symbol><symbol viewBox="0 0 19 19" id="icon-mono_baggage" xmlns="http://www.w3.org/2000/svg"><path fill-rule="evenodd" clip-rule="evenodd" d="M6.333 3.167A2.375 2.375 0 0 1 8.708.792h1.584a2.375 2.375 0 0 1 2.375 2.375v2.375h1.583a2.375 2.375 0 0 1 2.375 2.375v6.333a2.375 2.375 0 0 1-2.375 2.375h-.396c0 .656-.531 1.188-1.187 1.188h-.792a1.188 1.188 0 0 1-1.188-1.188H8.313c0 .656-.532 1.188-1.188 1.188h-.792a1.188 1.188 0 0 1-1.187-1.188H4.75a2.375 2.375 0 0 1-2.375-2.375V7.917A2.375 2.375 0 0 1 4.75 5.542h1.583V3.167Zm4.75 0v2.375H7.917V3.167c0-.438.354-.792.791-.792h1.584c.437 0 .791.354.791.792ZM4.75 7.125a.792.792 0 0 0-.792.792v6.333c0 .437.355.792.792.792h9.5a.792.792 0 0 0 .792-.792V7.917a.792.792 0 0 0-.792-.792h-9.5ZM7.125 9.5a.792.792 0 1 0-1.583 0v3.167a.792.792 0 0 0 1.583 0V9.5ZM9.5 8.708c.437 0 .792.355.792.792v3.167a.792.792 0 0 1-1.584 0V9.5c0-.437.355-.792.792-.792Zm3.958.792a.792.792 0 1 0-1.583 0v3.167a.792.792 0 0 0 1.583 0V9.5Z"/></symbol><symbol viewBox="0 0 19 19" id="icon-mono_children-baby" xmlns="http://www.w3.org/2000/svg"><path fill-rule="evenodd" clip-rule="evenodd" d="M10.625 8V2c3.315 0 6 2.685 6 6h-6Zm1.5-4.245V6.5h2.745a4.524 4.524 0 0 0-2.745-2.745ZM5.705 8.75l-.713-1.5H2.375v1.5H4.04s1.417 3.053 1.59 3.315a2.617 2.617 0 0 0-1.38 2.31A2.628 2.628 0 0 0 6.875 17a2.62 2.62 0 0 0 2.595-2.25h1.56A2.62 2.62 0 0 0 13.625 17a2.628 2.628 0 0 0 2.625-2.625c0-.78-.345-1.477-.885-1.957a5.96 5.96 0 0 0 1.26-3.668H5.705Zm.045 5.625c0 .623.503 1.125 1.125 1.125S8 14.998 8 14.375s-.503-1.125-1.125-1.125-1.125.502-1.125 1.125Zm7.875 1.125a1.123 1.123 0 0 1-1.125-1.125c0-.623.502-1.125 1.125-1.125s1.125.502 1.125 1.125-.502 1.125-1.125 1.125Zm.338-3.727.217-.278c.3-.382.533-.802.69-1.245H6.403l.25.514c.118.246.205.427.252.506l.33.503a2.661 2.661 0 0 1 2.01 1.477h2.01a2.629 2.629 0 0 1 2.707-1.477Z"/></symbol><symbol viewBox="0 0 19 19" id="icon-mono_flight-land" xmlns="http://www.w3.org/2000/svg"><path fill-rule="evenodd" clip-rule="evenodd" d="M8.14 1.496a.5.5 0 0 0-.628.483v5.904l-3.064-.82-.643-1.604a.5.5 0 0 0-.334-.297l-1.148-.309a.5.5 0 0 0-.63.483v4.093a.5.5 0 0 0 .37.483l13.118 3.515h.003a1.695 1.695 0 0 0 2.066-1.19l.001-.005a1.695 1.695 0 0 0-1.19-2.066l-.003-.001-3.937-1.053-2.103-6.875a.5.5 0 0 0-.35-.337l-1.529-.404Zm.372 7.038V2.628l.63.167 2.104 6.875a.5.5 0 0 0 .35.337l4.2 1.123h.001a.695.695 0 0 1 .488.845.695.695 0 0 1-.846.485h-.001L2.693 9.045V5.988l.277.075.643 1.604a.5.5 0 0 0 .335.297l3.934 1.053a.5.5 0 0 0 .63-.483ZM2.77 15.437a.792.792 0 1 0 0 1.584h13.458a.792.792 0 1 0 0-1.584H2.771Z"/></symbol><symbol viewBox="0 0 19 19" id="icon-mono_flight-takeoff" xmlns="http://www.w3.org/2000/svg"><path fill-rule="evenodd" clip-rule="evenodd" d="M6.706 2.235a.5.5 0 0 0-.469-.118l-1.528.404a.5.5 0 0 0-.305.733l2.952 5.112-3.064.82L2.928 8.12a.5.5 0 0 0-.437-.088l-1.148.308a.5.5 0 0 0-.304.733l2.05 3.554a.5.5 0 0 0 .563.234L16.77 9.354l.007-.002a1.705 1.705 0 0 0 1.195-2.073A1.685 1.685 0 0 0 15.9 6.084h-.002l-3.933 1.052-5.26-4.901ZM8.548 8.43l-2.95-5.11.628-.166 5.26 4.902a.5.5 0 0 0 .47.117L16.16 7.05l.004-.001c.364-.1.745.12.84.484a.705.705 0 0 1-.497.856L3.764 11.796 2.231 9.137l.278-.075 1.363 1.066a.5.5 0 0 0 .437.088l3.935-1.052a.5.5 0 0 0 .304-.733Zm-5.761 6.385a.792.792 0 0 0 0 1.583h13.458a.792.792 0 1 0 0-1.583H2.787Z"/></symbol><symbol viewBox="0 0 19 19" id="icon-mono_info" xmlns="http://www.w3.org/2000/svg"><path fill-rule="evenodd" clip-rule="evenodd" d="M9.5 2.714A6.788 6.788 0 0 0 2.714 9.5 6.788 6.788 0 0 0 9.5 16.286 6.788 6.788 0 0 0 16.286 9.5 6.788 6.788 0 0 0 9.5 2.714ZM8.82 6.107v1.357h1.357V6.107H8.822Zm0 2.714v4.072h1.357V8.82H8.822Zm-4.75.679A5.436 5.436 0 0 0 9.5 14.929 5.436 5.436 0 0 0 14.929 9.5 5.436 5.436 0 0 0 9.5 4.071 5.436 5.436 0 0 0 4.071 9.5Z"/></symbol><symbol viewBox="0 0 19 19" id="icon-mono_passengers" xmlns="http://www.w3.org/2000/svg"><path fill-rule="evenodd" clip-rule="evenodd" d="M9.5 1A8.503 8.503 0 0 0 1 9.5C1 14.192 4.808 18 9.5 18S18 14.192 18 9.5 14.192 1 9.5 1Zm.434 6.792a2.557 2.557 0 0 0-2.55-2.55 2.557 2.557 0 0 0-2.55 2.55 2.557 2.557 0 0 0 2.55 2.55 2.557 2.557 0 0 0 2.55-2.55Zm-2.55.85a.852.852 0 0 1-.85-.85c0-.468.382-.85.85-.85.467 0 .85.382.85.85 0 .467-.383.85-.85.85Zm7.224 0c0 .943-.756 1.7-1.7 1.7-.943 0-1.7-.757-1.7-1.7a1.689 1.689 0 0 1 1.7-1.7c.944 0 1.7.756 1.7 1.7ZM7.384 12.9c-1.182 0-2.533.484-3.111.944a6.744 6.744 0 0 0 4.81 2.43v-2.363c0-1.606 2.534-2.294 3.825-2.294.748 0 1.905.237 2.755.739a6.76 6.76 0 0 0 .637-2.865c0-3.748-3.052-6.8-6.8-6.8a6.809 6.809 0 0 0-6.8 6.8c0 1.046.238 2.032.663 2.916 1.139-.833 2.916-1.216 4.02-1.216.375 0 .825.051 1.301.136a4.101 4.101 0 0 0-1.105 1.582c-.035 0-.07-.003-.104-.005-.032-.002-.063-.004-.091-.004Z"/></symbol><symbol viewBox="0 0 19 19" id="icon-mono_passengers-adult" xmlns="http://www.w3.org/2000/svg"><path fill-rule="evenodd" clip-rule="evenodd" d="M5.39 4.922 4.29 4.768l-.04-.006c-.121-.017-.218-.03-.324-.039a1.536 1.536 0 0 0-.234-.004l-.008.017a3.28 3.28 0 0 0-.122.332c-.092.29-.187.682-.272 1.18l-.034.211c.04.534.271.786.547.908.55.243 1.07.185 1.315.04a.75.75 0 0 1 .762 1.292c-.754.445-1.8.43-2.684.04a2.515 2.515 0 0 1-.157-.076c-.026.5-.04 1.04-.04 1.62a6.5 6.5 0 0 0 12.959.738c-.181-.01-.38-.028-.582-.061-.427-.071-.991-.23-1.407-.647-.521-.52-.746-1.075-.878-1.499a8.941 8.941 0 0 1-.067-.229c-.26.035-.6.077-.989.108-.895.073-2.1.097-3.218-.183-1.103-.276-1.832-.7-2.298-1.089a3.298 3.298 0 0 1-.505-.517 2.222 2.222 0 0 1-.177-.268l-.005-.01-.002-.004-.001-.002v-.001l.67-.336-.67.335a.75.75 0 0 1 1.332-.689v.002a.739.739 0 0 0 .042.058c.046.06.133.16.276.28.283.236.805.562 1.702.786.882.22 1.894.211 2.733.143.413-.034.77-.08 1.036-.116l.043-.006c.112-.015.217-.029.296-.037.042-.005.1-.01.155-.012a.792.792 0 0 1 .285.04c.054.018.181.066.3.185.21.21.302.473.35.623.027.084.052.173.074.25l.001.005c.024.083.045.16.07.238.094.303.223.602.505.884.084.084.27.174.593.228.125.021.252.034.376.041-.005-.942-.024-1.733-.112-2.437-.109-.864-.31-1.481-.635-1.97-.888-1.33-2.907-3.223-5.54-2.847-1.664.238-2.577.56-3.093.854-.452.258-.626.51-.76.796l-.47 1.005ZM2.5 3.782c-.248.365-.497 1.108-.684 2.192a.747.747 0 0 0-.066.309l.001.098C1.598 7.42 1.5 8.73 1.5 10.283a8 8 0 1 0 16 0c0-2.527 0-4.5-1-6s-3.5-4-7-3.5-4.5 1.43-5 2.5l-.04-.006c-.512-.073-1.473-.209-1.96.506Z"/><path d="M8.375 11.22a.938.938 0 1 1-1.876 0 .938.938 0 0 1 1.876 0ZM11.938 10.283a.938.938 0 1 0 0 1.875.938.938 0 0 0 0-1.875Z"/></symbol><symbol viewBox="0 0 19 19" id="icon-mono_passengers-children" xmlns="http://www.w3.org/2000/svg"><path fill-rule="evenodd" clip-rule="evenodd" d="M17 9.5c0 4.14-3.36 7.5-7.5 7.5C5.36 17 2 13.64 2 9.5 2 5.36 5.36 2 9.5 2 13.64 2 17 5.36 17 9.5Zm-9.75 1.688a.938.938 0 1 0 0-1.876.938.938 0 0 0 0 1.876Zm3.563-.938a.938.938 0 1 1 1.875 0 .938.938 0 0 1-1.876 0Zm2.812-3.75a5.992 5.992 0 0 1-5.13-2.91A6.26 6.26 0 0 1 9.5 3.5c2.175 0 4.08 1.17 5.13 2.91a6.26 6.26 0 0 1-1.005.09Zm-9.81 1.103a6.034 6.034 0 0 0 2.745-3.33 6.034 6.034 0 0 0-2.745 3.33Zm11.438.217A5.91 5.91 0 0 1 15.5 9.5c0 3.307-2.693 6-6 6a6.008 6.008 0 0 1-5.998-6.038.224.224 0 0 0-.002-.067 7.512 7.512 0 0 0 4.305-4.162 7.5 7.5 0 0 0 7.447 2.587Z"/></symbol><symbol viewBox="0 0 19 19" id="icon-mono_passengers-old" xmlns="http://www.w3.org/2000/svg"><path fill-rule="evenodd" clip-rule="evenodd" d="M5.395 5.382a2.608 2.608 0 1 1 5.217 0 2.608 2.608 0 0 1-5.217 0Zm2.609-3.799a3.798 3.798 0 1 0 0 7.597 3.798 3.798 0 0 0 0-7.597Zm-4.44 12.035c0-.61.39-1.248 1.2-1.763.801-.51 1.945-.845 3.24-.845 1.294 0 2.438.335 3.24.845.808.515 1.198 1.153 1.198 1.763 0 .611-.39 1.249-1.198 1.764-.802.51-1.946.845-3.24.845-1.295 0-2.439-.335-3.24-.845-.81-.515-1.2-1.153-1.2-1.764Zm4.44-3.798c-1.486 0-2.859.382-3.88 1.031-1.012.645-1.749 1.609-1.749 2.767 0 1.159.737 2.123 1.75 2.767 1.02.65 2.393 1.032 3.879 1.032 1.485 0 2.858-.382 3.878-1.032 1.013-.644 1.75-1.608 1.75-2.767 0-1.158-.737-2.122-1.75-2.767-1.02-.649-2.393-1.03-3.878-1.03Zm5.963.084c.066-.285.335-.459.6-.388a5.208 5.208 0 0 1 1.554.688c.862.578 1.492 1.449 1.492 2.5 0 1.223-.848 2.198-1.944 2.765a5.452 5.452 0 0 1-1.101.422c-.266.07-.535-.103-.6-.389-.067-.285.095-.574.36-.644.332-.089.638-.207.91-.348.926-.48 1.384-1.164 1.384-1.807 0-.553-.334-1.132-1.026-1.595a4.256 4.256 0 0 0-1.267-.559c-.266-.07-.428-.36-.362-.645ZM12.927 2.2c-.331-.082-.68.075-.779.35-.098.275.09.565.422.647 1.134.28 1.96 1.153 1.96 2.185 0 .774-.464 1.458-1.176 1.87a3 3 0 0 1-.784.315c-.332.081-.52.37-.422.646.099.275.448.432.779.35a4.376 4.376 0 0 0 1.143-.458c1.034-.599 1.713-1.595 1.713-2.723 0-1.505-1.205-2.774-2.856-3.182Z"/></symbol><symbol viewBox="0 0 19 19" id="icon-mono_services-setting" xmlns="http://www.w3.org/2000/svg"><path fill-rule="evenodd" clip-rule="evenodd" d="M9.365 4.167h8.052a.792.792 0 0 1 0 1.583H9.365a2.376 2.376 0 0 1-4.48 0h-2.51a.792.792 0 0 1 0-1.583h2.51a2.376 2.376 0 0 1 4.48 0Zm-6.99 4.75a.792.792 0 0 0 0 1.583h8.844a2.376 2.376 0 0 0 4.48 0h1.718a.792.792 0 1 0 0-1.583h-1.719a2.376 2.376 0 0 0-4.48 0H2.376Zm-.792 5.541c0-.437.355-.791.792-.791h2.51a2.376 2.376 0 0 1 4.48 0h8.052a.792.792 0 1 1 0 1.583H9.365a2.376 2.376 0 0 1-4.48 0h-2.51a.792.792 0 0 1-.792-.792Z"/></symbol><symbol viewBox="0 0 19 19" id="icon-mono_services-setting-old" xmlns="http://www.w3.org/2000/svg"><path fill-rule="evenodd" clip-rule="evenodd" d="M9.5 2.375c.437 0 .792.354.792.792v.803a6.73 6.73 0 0 1 6.333 6.717v3.563c0 .874-.709 1.583-1.583 1.583h-3.563c0 .656-.396 1.188-1.979 1.188-1.583 0-1.98-.532-1.98-1.188H3.959a1.583 1.583 0 0 1-1.583-1.583v-3.563A6.73 6.73 0 0 1 8.708 3.97v-.803c0-.438.355-.792.792-.792Zm-.396 3.167a5.146 5.146 0 0 0-5.146 5.146v3.562h11.084v-3.563a5.146 5.146 0 0 0-5.146-5.145h-.792Z"/></symbol><symbol viewBox="0 0 19 19" id="icon-mono_share" xmlns="http://www.w3.org/2000/svg"><path d="M11.083 6.73V3.561l5.542 5.542-5.542 5.542V11.4c-3.958 0-6.729 1.267-8.708 4.037.792-3.958 3.167-7.916 8.708-8.708Z"/></symbol></svg>